<svg version="1.1" viewBox="0.0 0.0 351.3963254593176 292.750656167979" fill="none" stroke="none" stroke-linecap="square" stroke-miterlimit="10" xmlns:xlink="http://www.w3.org/1999/xlink" xmlns="http://www.w3.org/2000/svg"><clipPath id="p.0"><path d="m0 0l351.39633 0l0 292.75067l-351.39633 0l0 -292.75067z" clip-rule="nonzero"/></clipPath><g clip-path="url(#p.0)"><path fill="#000000" fill-opacity="0.0" d="m0 0l351.39633 0l0 292.75067l-351.39633 0z" fill-rule="evenodd"/><path fill="#000000" fill-opacity="0.0" d="m201.82808 150.10367l68.063 0" fill-rule="evenodd"/><path stroke="#000000" stroke-width="2.0" stroke-linejoin="round" stroke-linecap="butt" d="m201.82808 150.10367l56.063004 0" fill-rule="evenodd"/><path fill="#000000" stroke="#000000" stroke-width="2.0" stroke-linecap="butt" d="m257.89108 153.40714l9.076202 -3.3034668l-9.076202 -3.3034515z" fill-rule="evenodd"/><path fill="#434343" d="m141.92258 42.939632l0 0c0 -16.54245 13.410294 -29.952755 29.952759 -29.952755l0 0c7.9439545 0 15.562561 3.1557283 21.179794 8.77296c5.6172333 5.6172314 8.772949 13.23583 8.772949 21.179796l0 0c0 16.54245 -13.410294 29.952755 -29.952744 29.952755l0 0c-16.542465 0 -29.952759 -13.410305 -29.952759 -29.952755z" fill-rule="evenodd"/><path stroke="#000000" stroke-width="1.0" stroke-linejoin="round" stroke-linecap="butt" d="m141.92258 42.939632l0 0c0 -16.54245 13.410294 -29.952755 29.952759 -29.952755l0 0c7.9439545 0 15.562561 3.1557283 21.179794 8.77296c5.6172333 5.6172314 8.772949 13.23583 8.772949 21.179796l0 0c0 16.54245 -13.410294 29.952755 -29.952744 29.952755l0 0c-16.542465 0 -29.952759 -13.410305 -29.952759 -29.952755z" fill-rule="evenodd"/><path fill="#efefef" d="m160.53928 45.562756l1.65625 -0.140625q0.125 1.0 0.546875 1.640625q0.4375 0.640625 1.34375 1.046875q0.921875 0.390625 2.0625 0.390625q1.0 0 1.78125 -0.296875q0.78125 -0.296875 1.15625 -0.8125q0.375 -0.53125 0.375 -1.15625q0 -0.625 -0.375 -1.09375q-0.359375 -0.46875 -1.1875 -0.796875q-0.546875 -0.203125 -2.390625 -0.640625q-1.828125 -0.453125 -2.5625 -0.84375q-0.96875 -0.5 -1.4375 -1.234375q-0.46875 -0.75 -0.46875 -1.671875q0 -1.0 0.578125 -1.875q0.578125 -0.890625 1.671875 -1.34375q1.109375 -0.453125 2.453125 -0.453125q1.484375 0 2.609375 0.484375q1.140625 0.46875 1.75 1.40625q0.609375 0.921875 0.65625 2.09375l-1.6875 0.125q-0.140625 -1.265625 -0.9375 -1.90625q-0.78125 -0.65625 -2.3125 -0.65625q-1.609375 0 -2.34375 0.59375q-0.734375 0.59375 -0.734375 1.421875q0 0.71875 0.53125 1.171875q0.5 0.46875 2.65625 0.96875q2.15625 0.484375 2.953125 0.84375q1.171875 0.53125 1.71875 1.359375q0.5625 0.828125 0.5625 1.90625q0 1.0625 -0.609375 2.015625q-0.609375 0.9375 -1.75 1.46875q-1.140625 0.515625 -2.578125 0.515625q-1.8125 0 -3.046875 -0.53125q-1.21875 -0.53125 -1.921875 -1.59375q-0.6875 -1.0625 -0.71875 -2.40625z" fill-rule="nonzero"/><path fill="#efefef" d="m172.12347 56.85963l3.421875 -8.90625l1.265625 0l3.640625 8.90625l-1.34375 0l-1.03125 -2.703125l-3.734375 0l-0.96875 2.703125l-1.25 0zm2.5625 -3.65625l3.015625 0l-0.921875 -2.46875q-0.421875 -1.125 -0.625 -1.84375q-0.171875 0.859375 -0.484375 1.703125l-0.984375 2.609375z" fill-rule="nonzero"/><path fill="#efefef" d="m141.92258 150.10367l0 0c0 -16.54245 13.410294 -29.952751 29.952759 -29.952751l0 0c7.9439545 0 15.562561 3.1557312 21.179794 8.772957c5.6172333 5.6172333 8.772949 13.23584 8.772949 21.179794l0 0c0 16.54245 -13.410294 29.952759 -29.952744 29.952759l0 0c-16.542465 0 -29.952759 -13.410309 -29.952759 -29.952759z" fill-rule="evenodd"/><path stroke="#000000" stroke-width="1.0" stroke-linejoin="round" stroke-linecap="butt" d="m141.92258 150.10367l0 0c0 -16.54245 13.410294 -29.952751 29.952759 -29.952751l0 0c7.9439545 0 15.562561 3.1557312 21.179794 8.772957c5.6172333 5.6172333 8.772949 13.23584 8.772949 21.179794l0 0c0 16.54245 -13.410294 29.952759 -29.952744 29.952759l0 0c-16.542465 0 -29.952759 -13.410309 -29.952759 -29.952759z" fill-rule="evenodd"/><path fill="#000000" d="m161.1174 157.02368l0 -13.359375l1.8125 0l7.015625 10.484375l0 -10.484375l1.6875 0l0 13.359375l-1.8125 0l-7.015625 -10.5l0 10.5l-1.6875 0z" fill-rule="nonzero"/><path fill="#000000" d="m177.8091 164.02368l-1.09375 0l0 -6.96875q-0.40625 0.375 -1.046875 0.75q-0.640625 0.375 -1.140625 0.578125l0 -1.0625q0.90625 -0.4375 1.59375 -1.046875q0.6875 -0.609375 0.96875 -1.1875l0.71875 0l0 8.9375z" fill-rule="nonzero"/><path fill="#434343" d="m269.89108 248.55673l0 0c0 -16.54245 13.410309 -29.952759 29.952759 -29.952759l0 0c7.9439697 0 15.562561 3.1557312 21.17978 8.7729645c5.6172485 5.6172333 8.77298 13.235825 8.77298 21.179794l0 0c0 16.54245 -13.410309 29.952759 -29.952759 29.952759l0 0c-16.54245 0 -29.952759 -13.410309 -29.952759 -29.952759z" fill-rule="evenodd"/><path stroke="#000000" stroke-width="1.0" stroke-linejoin="round" stroke-linecap="butt" d="m269.89108 248.55673l0 0c0 -16.54245 13.410309 -29.952759 29.952759 -29.952759l0 0c7.9439697 0 15.562561 3.1557312 21.17978 8.7729645c5.6172485 5.6172333 8.77298 13.235825 8.77298 21.179794l0 0c0 16.54245 -13.410309 29.952759 -29.952759 29.952759l0 0c-16.54245 0 -29.952759 -13.410309 -29.952759 -29.952759z" fill-rule="evenodd"/><path fill="#efefef" d="m288.50778 251.17986l1.65625 -0.140625q0.125 1.0 0.546875 1.640625q0.4375 0.640625 1.34375 1.046875q0.921875 0.390625 2.0625 0.390625q1.0 0 1.78125 -0.296875q0.78125 -0.296875 1.15625 -0.8125q0.375 -0.53125 0.375 -1.15625q0 -0.625 -0.375 -1.09375q-0.359375 -0.46875 -1.1875 -0.796875q-0.546875 -0.203125 -2.390625 -0.640625q-1.828125 -0.453125 -2.5625 -0.84375q-0.96875 -0.5 -1.4375 -1.234375q-0.46875 -0.75 -0.46875 -1.671875q0 -1.0 0.578125 -1.875q0.578125 -0.890625 1.671875 -1.34375q1.109375 -0.453125 2.453125 -0.453125q1.484375 0 2.609375 0.484375q1.140625 0.46875 1.75 1.40625q0.609375 0.921875 0.65625 2.09375l-1.6875 0.125q-0.140625 -1.265625 -0.9375 -1.90625q-0.78125 -0.65625 -2.3125 -0.65625q-1.609375 0 -2.34375 0.59375q-0.734375 0.59375 -0.734375 1.421875q0 0.71875 0.53125 1.171875q0.5 0.46875 2.65625 0.96875q2.15625 0.484375 2.953125 0.84375q1.171875 0.53125 1.71875 1.359375q0.5625 0.828125 0.5625 1.90625q0 1.0625 -0.609375 2.015625q-0.609375 0.9375 -1.75 1.46875q-1.140625 0.515625 -2.578125 0.515625q-1.8125 0 -3.046875 -0.53125q-1.21875 -0.53125 -1.921875 -1.59375q-0.6875 -1.0625 -0.71875 -2.40625z" fill-rule="nonzero"/><path fill="#efefef" d="m307.4201 259.3517l1.171875 0.296875q-0.359375 1.453125 -1.328125 2.21875q-0.96875 0.765625 -2.359375 0.765625q-1.4375 0 -2.34375 -0.578125q-0.890625 -0.59375 -1.359375 -1.703125q-0.46875 -1.125 -0.46875 -2.390625q0 -1.390625 0.53125 -2.4218597q0.53125 -1.046875 1.5 -1.578125q0.984375 -0.546875 2.171875 -0.546875q1.328125 0 2.234375 0.6875q0.921875 0.6875 1.28125 1.9062347l-1.171875 0.28125q-0.296875 -0.96873474 -0.890625 -1.4062347q-0.59375 -0.453125 -1.484375 -0.453125q-1.03125 0 -1.71875 0.5q-0.6875 0.484375 -0.96875 1.3124847q-0.28125 0.828125 -0.28125 1.703125q0 1.140625 0.328125 2.0q0.34375 0.84375 1.03125 1.265625q0.703125 0.40625 1.515625 0.40625q1.0 0 1.671875 -0.5625q0.6875 -0.578125 0.9375 -1.703125z" fill-rule="nonzero"/><path fill="#434343" d="m12.727035 248.55511l0 0c0 -16.54245 13.410306 -29.952759 29.952755 -29.952759l0 0c7.943966 0 15.562565 3.1557312 21.179798 8.7729645c5.6172333 5.6172333 8.772957 13.23584 8.772957 21.179794l0 0c0 16.54245 -13.410305 29.952759 -29.952755 29.952759l0 0c-16.54245 0 -29.952755 -13.410309 -29.952755 -29.952759z" fill-rule="evenodd"/><path stroke="#000000" stroke-width="1.0" stroke-linejoin="round" stroke-linecap="butt" d="m12.727035 248.55511l0 0c0 -16.54245 13.410306 -29.952759 29.952755 -29.952759l0 0c7.943966 0 15.562565 3.1557312 21.179798 8.7729645c5.6172333 5.6172333 8.772957 13.23584 8.772957 21.179794l0 0c0 16.54245 -13.410305 29.952759 -29.952755 29.952759l0 0c-16.54245 0 -29.952755 -13.410309 -29.952755 -29.952759z" fill-rule="evenodd"/><path fill="#efefef" d="m31.343742 251.17824l1.65625 -0.140625q0.125 1.0 0.546875 1.640625q0.4375 0.640625 1.34375 1.046875q0.921875 0.390625 2.0625 0.390625q1.0 0 1.78125 -0.296875q0.78125 -0.296875 1.15625 -0.8125q0.375 -0.53125 0.375 -1.15625q0 -0.625 -0.375 -1.09375q-0.359375 -0.46875 -1.1875 -0.796875q-0.546875 -0.203125 -2.390625 -0.640625q-1.828125 -0.453125 -2.5625 -0.84375q-0.96875 -0.5 -1.4375 -1.234375q-0.46875 -0.75 -0.46875 -1.671875q0 -1.0 0.578125 -1.875q0.578125 -0.890625 1.671875 -1.34375q1.109375 -0.453125 2.453125 -0.453125q1.484375 0 2.609375 0.484375q1.140625 0.46875 1.75 1.40625q0.609375 0.921875 0.65625 2.09375l-1.6875 0.125q-0.140625 -1.265625 -0.9375 -1.90625q-0.78125 -0.65625 -2.3125 -0.65625q-1.609375 0 -2.34375 0.59375q-0.734375 0.59375 -0.734375 1.421875q0 0.71875 0.53125 1.171875q0.5 0.46875 2.65625 0.96875q2.15625 0.484375 2.953125 0.84375q1.171875 0.53125 1.71875 1.359375q0.5625 0.828125 0.5625 1.90625q0 1.0625 -0.609375 2.015625q-0.609375 0.9375 -1.75 1.46875q-1.140625 0.515625 -2.578125 0.515625q-1.8125 0 -3.046875 -0.53125q-1.21875 -0.53125 -1.921875 -1.59375q-0.6875 -1.0625 -0.71875 -2.40625z" fill-rule="nonzero"/><path fill="#efefef" d="m43.849815 262.47513l0 -8.906265l3.34375 0q1.015625 0 1.625 0.28125q0.625 0.265625 0.96875 0.828125q0.359375 0.5625 0.359375 1.171875q0 0.56251526 -0.3125 1.0781403q-0.3125 0.5 -0.9375 0.8125q0.8125 0.234375 1.25 0.8125q0.4375 0.5625 0.4375 1.34375q0 0.625 -0.265625 1.171875q-0.265625 0.53125 -0.65625 0.828125q-0.390625 0.28125 -0.984375 0.4375q-0.578125 0.140625 -1.421875 0.140625l-3.40625 0zm1.1875 -5.15625l1.921875 0q0.78125 0 1.125 -0.109375q0.453125 -0.140625 0.671875 -0.4375q0.234375 -0.3125 0.234375 -0.78126526q0 -0.4375 -0.21875 -0.78125q-0.203125 -0.34375 -0.609375 -0.46875q-0.390625 -0.125 -1.34375 -0.125l-1.78125 0l0 2.7031403zm0 4.109375l2.21875 0q0.5625 0 0.796875 -0.046875q0.40625 -0.078125 0.671875 -0.234375q0.28125 -0.171875 0.453125 -0.5q0.171875 -0.328125 0.171875 -0.75q0 -0.5 -0.25 -0.859375q-0.25 -0.375 -0.703125 -0.515625q-0.453125 -0.15625 -1.3125 -0.15625l-2.046875 0l0 3.0625z" fill-rule="nonzero"/><path fill="#efefef" d="m269.8924 150.10498l0 0c0 -16.54245 13.410309 -29.952751 29.952759 -29.952751l0 0c7.9439697 0 15.562561 3.1557312 21.17978 8.772957c5.6172485 5.6172333 8.77298 13.23584 8.77298 21.179794l0 0c0 16.54245 -13.410309 29.952759 -29.952759 29.952759l0 0c-16.54245 0 -29.952759 -13.410309 -29.952759 -29.952759z" fill-rule="evenodd"/><path stroke="#000000" stroke-width="1.0" stroke-linejoin="round" stroke-linecap="butt" d="m269.8924 150.10498l0 0c0 -16.54245 13.410309 -29.952751 29.952759 -29.952751l0 0c7.9439697 0 15.562561 3.1557312 21.17978 8.772957c5.6172485 5.6172333 8.77298 13.23584 8.77298 21.179794l0 0c0 16.54245 -13.410309 29.952759 -29.952759 29.952759l0 0c-16.54245 0 -29.952759 -13.410309 -29.952759 -29.952759z" fill-rule="evenodd"/><path fill="#000000" d="m289.08722 157.025l0 -13.359375l1.8125 0l7.015625 10.484375l0 -10.484375l1.6875 0l0 13.359375l-1.8125 0l-7.015625 -10.5l0 10.5l-1.6875 0z" fill-rule="nonzero"/><path fill="#000000" d="m301.65393 161.68124l1.09375 -0.15625q0.1875 0.9375 0.640625 1.34375q0.453125 0.40625 1.109375 0.40625q0.765625 0 1.296875 -0.53125q0.53125 -0.53125 0.53125 -1.328125q0 -0.75 -0.5 -1.234375q-0.484375 -0.5 -1.234375 -0.5q-0.3125 0 -0.78125 0.125l0.125 -0.953125q0.109375 0.015625 0.171875 0.015625q0.703125 0 1.265625 -0.359375q0.5625 -0.375 0.5625 -1.140625q0 -0.59375 -0.40625 -0.984375q-0.40625 -0.40625 -1.0625 -0.40625q-0.625 0 -1.0625 0.40625q-0.421875 0.40625 -0.546875 1.203125l-1.09375 -0.1875q0.203125 -1.109375 0.90625 -1.703125q0.71875 -0.609375 1.78125 -0.609375q0.71875 0 1.328125 0.3125q0.625 0.3125 0.953125 0.859375q0.328125 0.53125 0.328125 1.140625q0 0.578125 -0.3125 1.0625q-0.3125 0.46875 -0.921875 0.734375q0.796875 0.1875 1.234375 0.765625q0.4375 0.578125 0.4375 1.4375q0 1.15625 -0.859375 1.96875q-0.84375 0.8125 -2.140625 0.8125q-1.171875 0 -1.953125 -0.6875q-0.78125 -0.703125 -0.890625 -1.8125z" fill-rule="nonzero"/><path fill="#000000" fill-opacity="0.0" d="m171.87534 72.89239l0 47.244095" fill-rule="evenodd"/><path stroke="#ff0000" stroke-width="3.0" stroke-linejoin="round" stroke-linecap="butt" d="m171.87534 72.89239l0 29.244095" fill-rule="evenodd"/><path fill="#ff0000" stroke="#ff0000" stroke-width="3.0" stroke-linecap="butt" d="m166.92014 102.13648l4.9552 13.614296l4.955185 -13.614296z" fill-rule="evenodd"/><path fill="#000000" fill-opacity="0.0" d="m299.84515 180.05774l0 38.551178" fill-rule="evenodd"/><path stroke="#ff0000" stroke-width="3.0" stroke-linejoin="round" stroke-linecap="butt" d="m299.84515 180.05774l0 20.551178" fill-rule="evenodd"/><path fill="#ff0000" stroke="#ff0000" stroke-width="3.0" stroke-linecap="butt" d="m294.88995 200.60892l4.9552 13.614304l4.9552 -13.614304z" fill-rule="evenodd"/><path fill="#000000" fill-opacity="0.0" d="m171.87534 180.05643c0 34.25197 -49.622055 68.50394 -99.2441 68.50394" fill-rule="evenodd"/><path stroke="#ff0000" stroke-width="3.0" stroke-linejoin="round" stroke-linecap="butt" d="m171.87534 180.05643c0 17.125992 -12.405518 34.25197 -31.013794 47.096466c-9.304123 6.422241 -20.15895 11.774109 -31.789116 15.520416c-5.8150864 1.8731537 -11.824005 3.344925 -17.92984 4.3483887l-0.56967926 0.09082031" fill-rule="evenodd"/><path fill="#ff0000" stroke="#ff0000" stroke-width="3.0" stroke-linecap="butt" d="m90.174324 242.17336l-13.171593 6.0342407l13.968758 3.84404z" fill-rule="evenodd"/><path fill="#000000" fill-opacity="0.0" d="m42.67979 218.60236c0 -34.25197 49.622044 -68.50394 99.244095 -68.50394" fill-rule="evenodd"/><path stroke="#ff0000" stroke-width="3.0" stroke-linejoin="round" stroke-linecap="butt" d="m42.67979 218.60236c0 -17.125977 12.40551 -34.25197 31.013783 -47.09645c9.304131 -6.422241 20.15895 -11.774109 31.789124 -15.520416c5.8150787 -1.8731537 11.8239975 -3.344925 17.92984 -4.348404l0.56967163 -0.090789795" fill-rule="evenodd"/><path fill="#ff0000" stroke="#ff0000" stroke-width="3.0" stroke-linecap="butt" d="m124.38079 156.48543l13.171593 -6.0342255l-13.96875 -3.8440552z" fill-rule="evenodd"/><path fill="#000000" fill-opacity="0.0" d="m171.87665 76.80315l59.905502 0l0 26.330711l-59.905502 0z" fill-rule="evenodd"/><path fill="#000000" d="m181.73602 98.60315l0 -6.90625l1.0625 0l0 1.046875q0.40625 -0.734375 0.734375 -0.96875q0.34375 -0.234375 0.765625 -0.234375q0.59375 0 1.203125 0.375l-0.40625 1.078125q-0.4375 -0.25 -0.859375 -0.25q-0.390625 0 -0.703125 0.234375q-0.296875 0.234375 -0.421875 0.640625q-0.203125 0.625 -0.203125 1.359375l0 3.625l-1.171875 0zm9.18837 -2.21875l1.203125 0.140625q-0.28125 1.0625 -1.0625 1.65625q-0.765625 0.578125 -1.96875 0.578125q-1.515625 0 -2.40625 -0.9375q-0.890625 -0.9375 -0.890625 -2.609375q0 -1.75 0.890625 -2.703125q0.90625 -0.96875 2.34375 -0.96875q1.390625 0 2.265625 0.9375q0.875 0.9375 0.875 2.65625q0 0.109375 0 0.3125l-5.15625 0q0.0625 1.140625 0.640625 1.75q0.578125 0.59375 1.4375 0.59375q0.65625 0 1.109375 -0.328125q0.453125 -0.34375 0.71875 -1.078125zm-3.84375 -1.90625l3.859375 0q-0.078125 -0.859375 -0.4375 -1.296875q-0.5625 -0.6875 -1.453125 -0.6875q-0.8125 0 -1.359375 0.546875q-0.546875 0.53125 -0.609375 1.4375zm9.084351 3.078125l0.171875 1.03125q-0.5 0.109375 -0.890625 0.109375q-0.640625 0 -1.0 -0.203125q-0.34375 -0.203125 -0.484375 -0.53125q-0.140625 -0.328125 -0.140625 -1.390625l0 -3.96875l-0.859375 0l0 -0.90625l0.859375 0l0 -1.71875l1.171875 -0.703125l0 2.421875l1.171875 0l0 0.90625l-1.171875 0l0 4.046875q0 0.5 0.046875 0.640625q0.0625 0.140625 0.203125 0.234375q0.140625 0.078125 0.40625 0.078125q0.203125 0 0.515625 -0.046875z" fill-rule="nonzero"/><path fill="#000000" fill-opacity="0.0" d="m257.0735 186.16536l42.771667 0l0 26.330704l-42.771667 0z" fill-rule="evenodd"/><path fill="#000000" d="m271.4641 205.4341l1.15625 0.15625q-0.1875 1.1875 -0.96875 1.859375q-0.78125 0.671875 -1.921875 0.671875q-1.40625 0 -2.28125 -0.921875q-0.859375 -0.9375 -0.859375 -2.65625q0 -1.125 0.375 -1.96875q0.375 -0.84375 1.125 -1.25q0.765625 -0.421875 1.65625 -0.421875q1.125 0 1.84375 0.578125q0.71875 0.5625 0.921875 1.609375l-1.140625 0.171875q-0.171875 -0.703125 -0.59375 -1.046875q-0.40625 -0.359375 -0.984375 -0.359375q-0.890625 0 -1.453125 0.640625q-0.546875 0.640625 -0.546875 2.0q0 1.40625 0.53125 2.03125q0.546875 0.625 1.40625 0.625q0.6875 0 1.140625 -0.421875q0.46875 -0.421875 0.59375 -1.296875zm6.6640625 1.671875q-0.65625 0.5625 -1.265625 0.796875q-0.59375 0.21875 -1.28125 0.21875q-1.140625 0 -1.75 -0.546875q-0.609375 -0.5625 -0.609375 -1.4375q0 -0.5 0.21875 -0.921875q0.234375 -0.421875 0.609375 -0.671875q0.375 -0.25 0.84375 -0.390625q0.34375 -0.078125 1.046875 -0.171875q1.421875 -0.171875 2.09375 -0.40625q0 -0.234375 0 -0.296875q0 -0.71875 -0.328125 -1.015625q-0.453125 -0.390625 -1.34375 -0.390625q-0.8125 0 -1.21875 0.296875q-0.390625 0.28125 -0.578125 1.015625l-1.140625 -0.15625q0.15625 -0.734375 0.515625 -1.1875q0.359375 -0.453125 1.03125 -0.6875q0.671875 -0.25 1.5625 -0.25q0.890625 0 1.4375 0.203125q0.5625 0.203125 0.8125 0.53125q0.265625 0.3125 0.375 0.796875q0.046875 0.296875 0.046875 1.078125l0 1.5625q0 1.625 0.078125 2.0625q0.078125 0.4375 0.296875 0.828125l-1.21875 0q-0.1875 -0.359375 -0.234375 -0.859375zm-0.09375 -2.609375q-0.640625 0.265625 -1.921875 0.4375q-0.71875 0.109375 -1.015625 0.25q-0.296875 0.125 -0.46875 0.375q-0.15625 0.25 -0.15625 0.546875q0 0.46875 0.34375 0.78125q0.359375 0.3125 1.046875 0.3125q0.671875 0 1.203125 -0.296875q0.53125 -0.296875 0.78125 -0.8125q0.1875 -0.390625 0.1875 -1.171875l0 -0.421875zm2.9749756 3.46875l0 -9.546875l1.171875 0l0 9.546875l-1.171875 0zm2.96109 0l0 -9.546875l1.171875 0l0 9.546875l-1.171875 0z" fill-rule="nonzero"/><path fill="#000000" fill-opacity="0.0" d="m49.6063 136.93964l59.90551 0l0 26.330704l-59.90551 0z" fill-rule="evenodd"/><path fill="#000000" d="m59.465675 158.73964l0 -6.90625l1.0625 0l0 1.046875q0.40625 -0.734375 0.734375 -0.96875q0.34375 -0.234375 0.765625 -0.234375q0.59375 0 1.203125 0.375l-0.40625 1.078125q-0.4375 -0.25 -0.859375 -0.25q-0.390625 0 -0.703125 0.234375q-0.296875 0.234375 -0.421875 0.640625q-0.203125 0.625 -0.203125 1.359375l0 3.625l-1.171875 0zm9.18837 -2.21875l1.203125 0.140625q-0.28125 1.0625 -1.0625 1.65625q-0.765625 0.578125 -1.96875 0.578125q-1.515625 0 -2.40625 -0.9375q-0.890625 -0.9375 -0.890625 -2.609375q0 -1.75 0.890625 -2.703125q0.90625 -0.96875 2.34375 -0.96875q1.390625 0 2.265625 0.9375q0.875 0.9375 0.875 2.65625q0 0.109375 0 0.3125l-5.15625 0q0.0625 1.140625 0.640625 1.75q0.578125 0.59375 1.4375 0.59375q0.65625 0 1.109375 -0.328125q0.453125 -0.34375 0.71875 -1.078125zm-3.84375 -1.90625l3.859375 0q-0.078125 -0.859375 -0.4375 -1.296875q-0.5625 -0.6875 -1.453125 -0.6875q-0.8125 0 -1.359375 0.546875q-0.546875 0.53125 -0.609375 1.4375zm9.084351 3.078125l0.171875 1.03125q-0.5 0.109375 -0.890625 0.109375q-0.640625 0 -1.0 -0.203125q-0.34375 -0.203125 -0.484375 -0.53125q-0.140625 -0.328125 -0.140625 -1.390625l0 -3.96875l-0.859375 0l0 -0.90625l0.859375 0l0 -1.71875l1.171875 -0.703125l0 2.421875l1.171875 0l0 0.90625l-1.171875 0l0 4.046875q0 0.5 0.046875 0.640625q0.0625 0.140625 0.203125 0.234375q0.140625 0.078125 0.40625 0.078125q0.203125 0 0.515625 -0.046875z" fill-rule="nonzero"/><path fill="#000000" fill-opacity="0.0" d="m149.87665 200.88715l42.771652 0l0 26.330704l-42.771652 0z" fill-rule="evenodd"/><path fill="#000000" d="m164.26727 220.15588l1.15625 0.15625q-0.1875 1.1875 -0.96875 1.859375q-0.78125 0.671875 -1.921875 0.671875q-1.40625 0 -2.28125 -0.921875q-0.859375 -0.9375 -0.859375 -2.65625q0 -1.125 0.375 -1.96875q0.375 -0.84375 1.125 -1.25q0.765625 -0.421875 1.65625 -0.421875q1.125 0 1.84375 0.578125q0.71875 0.5625 0.921875 1.609375l-1.140625 0.171875q-0.171875 -0.703125 -0.59375 -1.046875q-0.40625 -0.359375 -0.984375 -0.359375q-0.890625 0 -1.453125 0.640625q-0.546875 0.640625 -0.546875 2.0q0 1.40625 0.53125 2.03125q0.546875 0.625 1.40625 0.625q0.6875 0 1.140625 -0.421875q0.46875 -0.421875 0.59375 -1.296875zm6.6640625 1.671875q-0.65625 0.5625 -1.265625 0.796875q-0.59375 0.21875 -1.28125 0.21875q-1.140625 0 -1.75 -0.546875q-0.609375 -0.5625 -0.609375 -1.4375q0 -0.5 0.21875 -0.921875q0.234375 -0.421875 0.609375 -0.671875q0.375 -0.25 0.84375 -0.390625q0.34375 -0.078125 1.046875 -0.171875q1.421875 -0.171875 2.09375 -0.40625q0 -0.234375 0 -0.296875q0 -0.71875 -0.328125 -1.015625q-0.453125 -0.390625 -1.34375 -0.390625q-0.8125 0 -1.21875 0.296875q-0.390625 0.28125 -0.578125 1.015625l-1.140625 -0.15625q0.15625 -0.734375 0.515625 -1.1875q0.359375 -0.453125 1.03125 -0.6875q0.671875 -0.25 1.5625 -0.25q0.890625 0 1.4375 0.203125q0.5625 0.203125 0.8125 0.53125q0.265625 0.3125 0.375 0.796875q0.046875 0.296875 0.046875 1.078125l0 1.5625q0 1.625 0.078125 2.0625q0.078125 0.4375 0.296875 0.828125l-1.21875 0q-0.1875 -0.359375 -0.234375 -0.859375zm-0.09375 -2.609375q-0.640625 0.265625 -1.921875 0.4375q-0.71875 0.109375 -1.015625 0.25q-0.296875 0.125 -0.46875 0.375q-0.15625 0.25 -0.15625 0.546875q0 0.46875 0.34375 0.78125q0.359375 0.3125 1.046875 0.3125q0.671875 0 1.203125 -0.296875q0.53125 -0.296875 0.78125 -0.8125q0.1875 -0.390625 0.1875 -1.171875l0 -0.421875zm2.9749756 3.46875l0 -9.546875l1.171875 0l0 9.546875l-1.171875 0zm2.96109 0l0 -9.546875l1.171875 0l0 9.546875l-1.171875 0z" fill-rule="nonzero"/></g></svg>